<svg width="27" height="23" fill="none" xmlns="http://www.w3.org/2000/svg">
<path class="" fill-rule="evenodd" clip-rule="evenodd" d="M3 0h17a3 3 0 013 3v17a3 3 0 01-3 3H3a3 3 0 01-3-3V3a3 3 0 013-3zm18 3c0-.54-.46-1-1-1H3c-.54 0-1 .46-1 1v17c0 .54.46 1 1 1h17c.54 0 1-.46 1-1V3z" fill="#C5C5C5"/>

<path class="" d="M7.28 7.49L4.46 10.3l7.78 7.79L26.17 4.17l-2.83-2.83-11.1 11.1-4.96-4.95z" fill="#C5C5C5"/>
<path class="" d="M21 20c0 .54-.46 1-1 1H3c-.54 0-1-.46-1-1V3c0-.54.46-1 1-1h16.9L21.5.42A2.96 2.96 0 0020 0H3a3 3 0 00-3 3v17a3 3 0 003 3h17a3 3 0 003-3v-9.83l-2 2V20z" fill="#C5C5C5"/>
</svg>
